<?xml version="1.0" standalone="no"?><!DOCTYPE svg PUBLIC "-//W3C//DTD SVG 1.1//EN" "http://www.w3.org/Graphics/SVG/1.1/DTD/svg11.dtd"><svg t="1567598677571" class="icon" viewBox="0 0 1024 1024" version="1.1" xmlns="http://www.w3.org/2000/svg" p-id="575" xmlns:xlink="http://www.w3.org/1999/xlink" width="200" height="200"><defs><style type="text/css"></style></defs><path d="M934.8632384 512c0 140.43428587-74.89828587 273.06666667-195.0476192 346.40457173-121.70971413 74.89828587-279.30819093 81.13980907-405.69904747 15.60380907-124.83047573-63.9756192-210.65142827-188.80609493-221.574096-327.68-12.48304747-140.43428587 51.49257173-279.30819093 165.40038187-363.5687616 115.46819093-84.26057173 271.50628587-102.9851424 402.5782848-48.37181013 127.9512384 53.05295253 224.6948576 170.08152427 248.10057173 307.39504853 4.6811424 23.40571413 6.24152427 46.81142827 6.24152427 70.2171424z" fill="#FFFFFF" p-id="576"></path><path d="M82.8952384 512C81.3348576 273.26171413 274.82209493 76.65371413 518.24152427 75.09333333c138.87390507 0 273.06666667 67.0963808 355.76685653 179.44380907 84.26057173 115.46819093 106.10590507 268.38552427 59.2944768 402.57828587-60.8548576 170.08152427-224.6948576 287.11009493-405.69904853 290.2308576C279.5032384 953.58780907 81.3348576 752.29866667 82.8952384 512c-1.5603808-238.73828587-1.5603808 240.29866667 0 0z m28.08685653 0c0 224.6948576 182.56457173 407.25942827 405.69904747 408.81980907 226.2552384 1.5603808 407.25942827-179.44380907 410.38019093-399.4575232C931.74247573 288.86552427 746.0571424 104.74057173 524.48304747 103.18019093 293.54666667 103.18019093 110.98209493 287.3051424 110.98209493 512z" fill="#085521" p-id="577"></path><path d="M123.4651424 512C123.4651424 291.98628587 299.78819093 120.3443808 512 115.6632384 735.13447573 112.54247573 916.13866667 293.54666667 914.57828587 513.5603808c-1.5603808 216.89295253-174.76266667 390.0952384-388.5348576 394.7763808C301.34857173 911.45752427 123.4651424 732.01371413 123.4651424 512z m783.3112384 0c0-213.77219093-171.64190507-386.97447573-386.97447573-386.97447573-216.89295253-1.5603808-386.97447573 173.20228587-388.5348576 380.73295146-3.1207616 218.45333333 173.20228587 391.6556192 385.41409493 393.216 213.77219093 1.5603808 390.0952384-170.08152427 390.0952384-386.97447573z" fill="#085521" p-id="578"></path><path d="M739.8156192 526.04342827c0 59.29447573-37.4491424 109.22666667-95.1832384 126.3908576l-23.40571413 4.6811424c-3.1207616 0-6.24152427 1.5603808-6.24152427 4.68114346-10.92266667 26.52647573-28.0868576 45.25104747-53.05295147 59.29447574-54.61333333 24.96609493-118.58895253-1.5603808-138.87390506-59.29447574-1.5603808-3.1207616-3.1207616-4.6811424-6.24152427-4.68114346-53.05295253-6.24152427-90.50209493-34.3283808-110.78704747-82.70018987-24.96609493-62.4152384 4.6811424-135.7531424 65.536-165.4003808 14.04342827-7.80190507 29.6472384-10.92266667 45.25104747-12.48304853 3.1207616 0 4.6811424-1.5603808 4.68114347-4.6811424 14.04342827-37.4491424 40.56990507-60.8548576 81.13980906-67.0963808 45.25104747-7.80190507 92.06247573 20.28495253 107.66628587 63.9756192 0 1.5603808 0 1.5603808 1.5603808 3.1207616 1.5603808 3.1207616 3.1207616 4.6811424 7.80190507 6.24152426 32.768 3.1207616 59.29447573 15.60380907 82.70018986 40.569904 18.72457173 20.28495253 31.2076192 43.69066667 34.32838187 71.77752427 1.5603808 4.6811424 1.5603808 10.92266667 3.1207616 15.60380907 0 59.29447573-1.5603808-4.6811424 0 0z m-424.4236192 0c0 4.6811424 0 9.36228587 1.5603808 12.48304746 1.5603808 6.24152427 1.5603808 12.48304747 4.68114347 17.16419094 7.80190507 26.52647573 23.40571413 49.93219093 46.81142826 63.9756192 12.48304747 7.80190507 24.96609493 12.48304747 39.0095232 15.60380906 10.92266667 1.5603808 28.0868576-3.1207616 31.2076192 9.36228587 12.48304747 51.49257173 68.6567616 79.57942827 115.46819094 57.73409493 26.52647573-12.48304747 40.56990507-32.768 46.81142826-59.29447573 0-4.6811424 42.13028587-9.36228587 49.93219094-12.48304747 17.16419093-6.24152427 32.768-17.16419093 43.69066666-31.2076192 28.0868576-34.3283808 34.3283808-71.77752427 20.28495254-113.90780906-9.36228587-23.40571413-24.96609493-42.13028587-46.81142934-56.1737152-9.36228587-6.24152427-20.28495253-10.92266667-31.2076192-14.04342827-6.24152427-1.5603808-34.3283808-1.5603808-34.3283808-7.80190507-6.24152427-34.3283808-34.3283808-60.8548576-68.6567616-67.0963808-45.25104747-7.80190507-87.38133333 21.84533333-95.1832384 67.0963808 0 6.24152427-31.2076192 6.24152427-37.4491424 9.36228587-49.93219093 14.04342827-84.26057173 60.8548576-85.82095253 109.22666667 0 4.6811424 1.5603808-48.37180907 0 0zM636.83047573 775.7043808c24.96609493-12.48304747 49.93219093-24.96609493 71.77752427-42.13028587l-1.5603808 1.5603808c-3.1207616 3.1207616-3.1207616 6.24152427 1.5603808 7.80190507 12.48304747 6.24152427 23.40571413 12.48304747 35.8887616 18.72457173h1.5603808c0-3.1207616-1.5603808-6.24152427-1.5603808-9.36228586-3.1207616-9.36228587-4.6811424-17.16419093-7.801904-26.52647574 0-1.5603808-1.5603808-3.1207616-1.56038187-4.68114346-1.5603808-3.1207616-4.6811424-4.6811424-7.801904-3.1207616-1.5603808 0-1.5603808 1.5603808-3.12076266 1.5603808 0 0 0-1.5603808 1.56038186-1.5603808 10.92266667-7.80190507 17.16419093-17.16419093 24.96609494-28.0868576 6.24152427-7.80190507 10.92266667-12.48304747 14.04342826-20.28495254 1.5603808-3.1207616 3.1207616-3.1207616 6.24152427-1.5603808 3.1207616 3.1207616 7.80190507 4.6811424 10.92266667 7.80190507 0 0 1.5603808 1.5603808 1.5603808 3.1207616-1.5603808 0-3.1207616-1.5603808-6.24152427-1.5603808-6.24152427-1.5603808-10.92266667 0-14.04342827 3.1207616-3.1207616 3.1207616-6.24152427 7.80190507-9.36228586 10.92266667 0 0 0 3.1207616 1.5603808 3.12076266 6.24152427 4.6811424 12.48304747 9.36228587 17.16419093 12.48304747 3.1207616 1.5603808 4.6811424 1.5603808 4.6811424-1.5603808 3.1207616-4.6811424 1.5603808-9.36228587-1.5603808-12.48304747l-4.6811424-4.68114346 1.5603808-1.5603808c9.36228587 6.24152427 17.16419093 12.48304747 26.52647573 18.72457173v1.5603808c-1.5603808 0-3.1207616 0-3.1207616-1.5603808-7.80190507-3.1207616-12.48304747-3.1207616-14.04342826 1.5603808-1.5603808 1.5603808-1.5603808 3.1207616 0 4.6811424 6.24152427 4.6811424 10.92266667 7.80190507 15.60380906 10.92266667 6.24152427 3.1207616 10.92266667-4.6811424 12.48304747-9.36228587 4.6811424-7.80190507 4.6811424-14.04342827 0-21.84533333-1.5603808-1.5603808-1.5603808-3.1207616-1.5603808-4.6811424 0 0 1.5603808 0 1.5603808 1.5603808 4.6811424 4.6811424 7.80190507 7.80190507 12.48304747 10.92266666 0 1.5603808 1.5603808 3.1207616 0 4.68114347-10.92266667 14.04342827-21.84533333 29.6472384-32.768 43.69066667h-1.5603808V746.0571424c3.1207616-4.6811424 3.1207616-7.80190507-1.5603808-10.92266667-12.48304747-10.92266667-26.52647573-18.72457173-39.0095232-29.64723733-10.92266667-6.24152427-9.36228587 10.92266667-7.80190507 15.60380907l14.04342827 51.49257173c0 1.5603808 1.5603808 4.6811424 1.5603808 6.2415232l-1.5603808 1.56038187c-4.6811424-1.5603808-7.80190507-4.6811424-12.48304747-6.24152427-15.60380907-7.80190507-32.768-15.60380907-48.37180907-24.96609493-4.6811424-1.5603808-7.80190507-1.5603808-12.48304853 0-4.6811424 0 0 10.92266667 1.56038187 12.48304746 7.80190507 12.48304747 12.48304747 23.40571413 20.28495146 35.8887616 4.6811424 9.36228587 4.6811424 9.36228587 12.48304854 6.24152427v1.5603808c-10.92266667 6.24152427-18.72457173 10.92266667-29.6472384 15.60380907l1.5603808-1.5603808c9.36228587-6.24152427-17.16419093-46.81142827-23.40571414-54.61333334-3.1207616-6.24152427-10.92266667 0-14.04342826 3.1207616-3.1207616 3.1207616-1.5603808 9.36228587-1.56038187 12.48304854 6.24152427 15.60380907 12.48304747 32.768 17.16419093 48.37180906v3.1207616l-1.5603808 1.5603808c-20.28495253-12.48304747-39.00952427-23.40571413-60.8548576-35.8887616v4.68114347c4.6811424 12.48304747 9.36228587 23.40571413 12.48304747 35.8887616 3.1207616 7.80190507 4.6811424 9.36228587 12.48304853 9.36228587v1.5603808c-7.80190507 3.1207616-12.48304747 4.6811424-20.28495253 7.80190506 7.80190507-7.80190507 7.80190507-7.80190507 3.1207616-17.16419093-4.6811424-12.48304747-9.36228587-24.96609493-12.48304747-37.4491424-1.5603808-3.1207616-4.6811424-6.24152427-7.80190506-6.24152427-14.04342827-4.6811424-6.24152427 21.84533333-6.2415232 26.52647574 1.5603808 6.24152427 1.5603808 12.48304747 3.1207616 18.72457173 1.5603808 14.04342827-7.80190507 21.84533333-17.16419094 24.96609493-15.60380907 4.6811424-28.0868576-1.5603808-32.768-17.16418986-1.5603808-10.92266667-3.1207616-21.84533333-4.6811424-34.3283808-1.5603808-9.36228587-1.5603808-9.36228587-9.36228586-12.48304747 10.92266667-1.5603808 20.28495253-3.1207616 32.768-4.68114347v1.5603808c-7.80190507 3.1207616-7.80190507 3.1207616-7.80190507 10.92266667 1.5603808 12.48304747 1.5603808 46.81142827 17.16419093 49.93219093 24.96609493 3.1207616 18.72457173-26.52647573 15.60380907-40.56990506 0-3.1207616-1.5603808-7.80190507-1.5603808-10.92266667-1.5603808-6.24152427-1.5603808-12.48304747-12.48304747-12.48304747v-1.5603808h4.6811424c10.92266667-1.5603808 20.28495253-4.6811424 29.6472384-7.80190506 3.1207616-1.5603808 4.6811424-1.5603808 7.80190507 0 12.48304747 7.80190507 24.96609493 14.04342827 35.8887616 21.84533333 1.5603808 1.5603808 3.1207616 1.5603808 4.68114347 3.1207616v-4.6811424c-3.1207616-7.80190507-4.6811424-14.04342827-7.80190507-20.28495253 4.6811424-7.80190507 3.1207616-14.04342827-4.68114347-10.92266667 24.96609493-12.48304747 7.80190507-3.1207616 0 0zM717.97028587 318.5127616c0-1.5603808-1.5603808-1.5603808 0 0-7.80190507-3.1207616-12.48304747-6.24152427-18.72457174-6.2415232-3.1207616-1.5603808-15.60380907-10.92266667-6.2415232-10.92266667 7.80190507 0 15.60380907 1.5603808 21.84533334 6.2415232 9.36228587 4.6811424 17.16419093 10.92266667 24.96609493 14.04342934l1.5603808 1.5603808h4.6811424c0-1.5603808-1.5603808-3.1207616-1.5603808-3.12076267-7.80190507-4.6811424-14.04342827-10.92266667-21.84533333-14.04342827-3.1207616-1.5603808-7.80190507-1.5603808-10.92266667-3.1207616-1.5603808 0-3.1207616-1.5603808-4.6811424-1.5603808-3.1207616-1.5603808-7.80190507-4.6811424-10.92266667-6.24152426-7.80190507-4.6811424-21.84533333 6.24152427-28.0868576 10.92266666-3.1207616 1.5603808-6.24152427 1.5603808-7.801904-1.5603808-1.5603808-1.5603808-1.5603808-7.80190507 1.5603808-9.36228586 4.6811424-4.6811424 9.36228587-6.24152427 12.48304747-12.48304747 1.5603808-1.5603808 12.48304747-7.80190507 12.48304747-1.5603808 3.1207616 4.6811424 7.80190507 6.24152427 10.92266666 1.5603808 6.24152427-7.80190507 10.92266667-14.04342827 14.04342827-21.84533333 4.6811424-4.6811424 9.36228587-9.36228587 9.36228587 1.5603808 0 9.36228587-9.36228587 15.60380907-14.04342827 23.40571413v4.68114347c1.5603808 0 3.1207616 0 4.6811424-1.5603808 7.80190507-10.92266667 14.04342827-20.28495253 21.84533333-31.2076192 3.1207616-3.1207616 4.6811424-4.6811424 7.80190507 0 3.1207616 3.1207616 9.36228587 3.1207616 10.92266667 9.36228586 3.1207616 7.80190507 15.60380907-6.24152427 15.60380906-3.12076266 4.6811424 7.80190507 1.5603808 9.36228587-1.5603808 15.60381013h-1.5603808c-4.6811424 1.5603808-9.36228587 1.5603808-7.80190506 7.801904 0 1.5603808-1.5603808 3.1207616 0 4.68114347 1.5603808 3.1207616 3.1207616 4.6811424 6.24152426 7.80190506l1.5603808-1.56038186c0-3.1207616-1.5603808-10.92266667-3.1207616-12.48304747 1.5603808 1.5603808 4.6811424 1.5603808 6.2415232 3.12076267 1.5603808 0 4.6811424 1.5603808 6.24152427 3.1207616 3.1207616 1.5603808 6.24152427 4.6811424 4.6811424 7.80190506 0 4.6811424 0 7.80190507-4.6811424 10.92266667l-18.72457173 9.3622848c-1.5603808 0-1.5603808 1.5603808-3.1207616 1.56038187l1.5603808 1.5603808c9.36228587 3.1207616 14.04342827 26.52647573 4.68114346 23.40571413-3.1207616 0-6.24152427-1.5603808-7.80190506-3.1207616-4.6811424-3.1207616-9.36228587-10.92266667-15.60381014-7.80190507-3.1207616 3.1207616-14.04342827-1.5603808-18.72457066 1.5603808 0 1.5603808 1.5603808 3.1207616 1.5603808 3.1207616 4.6811424 3.1207616 20.28495253 7.80190507 17.16418986 14.04342934 0 7.80190507-9.36228587 12.48304747-12.48304746 4.6811424-3.1207616-3.1207616-4.6811424-6.24152427-7.801904-7.80190507-4.6811424-4.6811424-6.24152427-4.6811424-9.36228587 1.5603808-4.6811424 7.80190507-12.48304747 12.48304747-18.72457173 14.04342933-4.6811424 0-9.36228587 3.1207616-12.48304747-1.5603808-3.1207616-4.6811424-3.1207616-15.60380907-4.68114347-20.28495253 0-1.5603808-1.5603808-3.1207616-1.5603808-4.68114347 3.1207616 1.5603808 3.1207616 1.5603808 4.68114347 1.5603808 7.80190507 3.1207616 12.48304747 12.48304747 20.28495253 4.68114347 3.1207616-4.6811424 4.6811424-6.24152427-1.56038186-9.36228587-4.6811424-3.1207616-9.36228587-6.24152427-12.48304747-7.80190506-12.48304747-6.24152427-9.36228587-24.96609493 3.12076267-12.48304747 4.6811424 3.1207616 9.36228587 6.24152427 14.04342826 10.92266667 4.6811424 4.6811424 6.24152427-4.6811424 12.48304747-4.6811424 3.1207616-1.5603808 6.24152427-1.5603808 9.36228587-4.68114347 0-1.5603808-3.1207616 3.1207616 0 0z m17.16418986-42.13028587c4.6811424 0 12.48304747-9.36228587 7.80190507-9.3622848h-3.1207616c-1.5603808 1.5603808-4.6811424 3.1207616-6.24152427 6.2415232 0 0 0 1.5603808 1.5603808 3.1207616-1.5603808 0 0 0 0 0z m-9.3622848 15.60381014c1.5603808 0 3.1207616-1.5603808 4.6811424-1.5603808 1.5603808-1.5603808 3.1207616-3.1207616 1.5603808-6.24152427-3.1207616-3.1207616-7.80190507 1.5603808-10.92266666 3.1207616l-1.5603808 1.56038187c0 1.5603808 1.5603808 1.5603808 1.5603808 1.5603808 1.5603808 1.5603808 3.1207616 1.5603808 4.68114346 1.5603808z m34.3283808 4.6811424c-3.1207616-1.5603808-4.6811424-3.1207616-6.24152426-4.6811424v1.5603808l4.68114346 4.6811424c0 1.5603808 0 0 1.5603808-1.5603808-1.5603808-1.5603808-1.5603808 1.5603808 0 0zM318.5127616 315.392c-3.1207616 4.6811424-7.80190507 10.92266667-6.2415232 17.16419093 1.5603808 6.24152427-4.6811424 9.36228587-10.92266667 9.3622848-4.6811424-1.5603808-9.36228587-3.1207616-12.48304746-3.1207616-3.1207616-1.5603808-4.6811424-1.5603808-7.80190507-4.6811424-3.1207616-4.6811424-6.24152427-9.36228587-7.80190507-12.48304746-1.5603808-1.5603808-3.1207616-3.1207616-3.1207616-6.24152427-1.5603808-4.6811424 0-10.92266667 4.6811424-10.92266667 3.1207616-1.5603808 4.6811424-3.1207616 4.68114347-6.24152426 1.5603808-4.6811424 3.1207616-10.92266667 4.6811424-14.04342827 0-3.1207616 0-4.6811424-1.5603808-6.2415232-7.80190507-4.6811424-28.0868576-21.84533333-7.80190507-28.0868576 7.80190507-1.5603808 12.48304747 6.24152427 17.16419094 10.92266667 4.6811424 4.6811424 12.48304747-9.36228587 12.48304746-12.48304747 3.1207616-7.80190507 14.04342827-12.48304747 21.84533334-7.80190507 3.1207616 1.5603808 3.1207616 6.24152427 3.1207616 10.92266667-1.5603808 3.1207616-1.5603808 7.80190507 0 10.92266667 0 7.80190507 14.04342827 6.24152427 10.92266666 17.16419093 0 1.5603808-1.5603808 3.1207616-3.1207616 4.6811424-3.1207616 4.6811424-4.6811424 9.36228587-7.80190506 12.48304747 0 1.5603808 1.5603808 4.6811424 1.5603808 6.24152426 10.92266667 12.48304747 23.40571413 24.96609493 34.32838186 35.8887616l9.3622848 14.04342827c3.1207616 3.1207616-3.1207616 9.36228587-7.801904 6.24152427-17.16419093-10.92266667-32.768-26.52647573-46.81142933-40.56990507 1.5603808 0 0-1.5603808-1.5603808-3.1207616-3.1207616 6.24152427 1.5603808 1.5603808 0 0z m0-40.56990507c-1.5603808-4.6811424-1.5603808-7.80190507-4.6811424-10.92266666-1.5603808-3.1207616-3.1207616-3.1207616-6.24152427 0-6.24152427 4.6811424-6.24152427 7.80190507-1.5603808 12.48304746 3.1207616 3.1207616 7.80190507 9.36228587 10.92266667 1.56038187 1.5603808-1.5603808 1.5603808-1.5603808 1.5603808-3.12076267z m-12.48304747 31.2076192c-1.5603808-3.1207616-7.80190507-10.92266667-10.92266666-10.92266666l-1.5603808 1.5603808c-1.5603808 1.5603808-1.5603808 4.6811424-3.1207616 6.24152426-3.1207616 4.6811424-3.1207616 4.6811424 1.5603808 7.80190507 9.36228587 0 6.24152427 1.5603808 14.04342826-4.68114347-1.5603808-3.1207616-1.5603808 1.5603808 0 0zM485.47352427 864.64609493c-10.92266667-20.28495253-23.40571413-40.56990507-34.32838187-60.85485653l-1.5603808 1.5603808c-3.1207616 12.48304747-4.6811424 24.96609493-7.801904 37.4491424-1.5603808 7.80190507 0 9.36228587 6.2415232 12.48304747v1.56038186c-7.80190507-1.5603808-14.04342827-3.1207616-21.84533333-4.68114346 0-1.5603808 0-1.5603808 1.5603808-1.5603808 9.36228587-1.5603808 9.36228587-1.5603808 10.92266666-10.92266667 3.1207616-14.04342827 6.24152427-28.0868576 7.80190507-42.13028587 0-3.1207616-3.1207616-9.36228587-6.24152427-10.92266666-1.5603808 0-3.1207616 1.5603808-3.1207616 1.5603808-1.5603808 3.1207616-1.5603808 7.80190507-4.6811424 12.48304746h-1.5603808c0-10.92266667-4.6811424-23.40571413-18.72457173-23.40571413-1.5603808-1.5603808-3.1207616 0-4.68114347 1.5603808-3.1207616 7.80190507-6.24152427 12.48304747-7.801904 20.28495253-1.5603808 1.5603808 0 3.1207616 1.5603808 4.68114347 4.6811424 1.5603808 9.36228587 0 10.92266667-4.68114347 1.5603808-1.5603808 3.1207616-4.6811424 4.6811424-6.2415232h1.5603808c-4.6811424 10.92266667-9.36228587 20.28495253-10.92266667 31.2076192h-1.5603808c0-6.24152427 1.5603808-15.60380907-6.2415232-17.16419093-4.6811424-4.6811424-10.92266667 15.60380907-12.48304746 18.72457173-1.5603808 4.6811424 0 6.24152427 3.1207616 7.801904 7.80190507 3.1207616 14.04342827 6.24152427 21.84533333 3.12076267 3.1207616-1.5603808 7.80190507-4.6811424 9.36228587-9.36228587l1.5603808 1.5603808v1.5603808c-3.1207616 4.6811424-6.24152427 10.92266667-9.36228587 14.04342827 0 1.5603808-3.1207616 1.5603808-3.1207616 1.56038187-15.60380907-6.24152427-32.768-12.48304747-49.93219093-18.72457174l-1.5603808-1.5603808h1.5603808c9.36228587 1.5603808 9.36228587-3.1207616 12.48304746-10.92266666 4.6811424-12.48304747 10.92266667-24.96609493 15.60381014-39.00952427 1.5603808-6.24152427-7.80190507-12.48304747-7.80190507-7.80190507-1.5603808 3.1207616-4.6811424 7.80190507-6.24152427 10.92266667 0 1.5603808 0 1.5603808-1.5603808 3.12076267l-1.5603808-1.5603808V777.2647616c3.1207616-10.92266667-3.1207616-21.84533333-12.48304746-24.96609493-6.24152427-1.5603808-12.48304747 3.1207616-10.92266667 10.92266666 3.1207616 9.36228587 10.92266667 15.60380907 12.48304747 24.96609494 9.36228587 15.60380907-9.36228587 32.768-24.96609494 26.5264768-10.92266667-3.1207616-14.04342827-14.04342827-26.5264768-14.04342934 4.6811424-7.80190507 9.36228587-14.04342827 12.48304854-20.28495146h1.5603808v3.1207616c-3.1207616 12.48304747 1.5603808 21.84533333 10.92266666 26.52647573 4.6811424 3.1207616 9.36228587 1.5603808 12.48304747-1.5603808 3.1207616-3.1207616 4.6811424-7.80190507 1.5603808-10.92266667-3.1207616-6.24152427-7.80190507-12.48304747-10.92266667-18.72457173-3.1207616-4.6811424-4.6811424-10.92266667-3.1207616-14.04342827 3.1207616-12.48304747 15.60380907-18.72457173 28.08685654-12.48304746 4.6811424 3.1207616 14.04342827 15.60380907 18.72457173 12.48304746 1.5603808 1.5603808 3.1207616 3.1207616 6.24152427 3.1207616 21.84533333 9.36228587 43.69066667 18.72457173 67.0963808 23.4057152 3.1207616 0 4.6811424 1.5603808 6.2415232 4.6811424 7.80190507 12.48304747 12.48304747 26.52647573 20.28495253 39.00952427 0 1.5603808 1.5603808 1.5603808 1.5603808 3.1207616h1.5603808c0-1.5603808 1.5603808-4.6811424 1.56038187-6.24152427 1.5603808-7.80190507 3.1207616-14.04342827 4.6811424-21.84533333 1.5603808-6.24152427 0-7.80190507-6.24152427-10.92266667 0 0-1.5603808 0-1.5603808-1.5603808 6.24152427 1.5603808 12.48304747 3.1207616 18.72457173 3.1207616v1.56038187l-1.5603808 1.5603808c-4.6811424 0-7.80190507 3.1207616-7.80190506 6.2415232-1.5603808 10.92266667-3.1207616 18.72457173-6.2415232 29.6472384 4.6811424 6.24152427 3.1207616 14.04342827 0 24.96609493 3.1207616-1.5603808 1.5603808-1.5603808 0 0 1.5603808 0 1.5603808 0 0 0-6.24152427-10.92266667 1.5603808 0 0 0zM644.6323808 284.1843808c-12.48304747 0-24.96609493 3.1207616-35.8887616-3.1207616-6.24152427-3.1207616-7.80190507-14.04342827-10.92266667-20.28495253-3.1207616-9.36228587-6.24152427-17.16419093-9.36228586-26.52647574 0-1.5603808-1.5603808-3.1207616-1.5603808-6.24152426l-4.68114347 4.6811424c-7.80190507 6.24152427-12.48304747 12.48304747-20.28495147 18.72457173-6.24152427 4.6811424-9.36228587 4.6811424-14.04342933 0-3.1207616-3.1207616-12.48304747-7.80190507-12.48304747-12.48304747h4.68114347c14.04342827 4.6811424 31.2076192-6.24152427 34.3283808-15.60380906 1.5603808-4.6811424 1.5603808-4.6811424-3.12076267-6.24152427-4.6811424 0-9.36228587-1.5603808-12.48304746-3.1207616-4.6811424-1.5603808-6.24152427-4.6811424-7.801904-7.80190507 0-3.1207616-1.5603808-6.24152427 0-9.36228586 0-6.24152427 4.6811424-9.36228587 9.3622848-7.80190507 7.80190507 1.5603808 21.84533333 12.48304747 24.966096 1.56038187 1.5603808-4.6811424 1.5603808-10.92266667 3.1207616-14.04342934 0-1.5603808 1.5603808-3.1207616 3.1207616-4.6811424 9.36228587-4.6811424 17.16419093 0 18.72457173 9.36228587 0 1.5603808-1.5603808 4.6811424-1.5603808 7.801904-3.1207616 7.80190507 6.24152427 14.04342827 12.48304747 7.80190507 3.1207616-1.5603808 6.24152427 0 7.80190506 3.1207616 1.5603808 1.5603808 1.5603808 3.1207616 1.5603808 3.12076266 1.5603808 4.6811424 1.5603808 6.24152427-3.1207616 7.801904-6.24152427 1.5603808-20.28495253 0-24.966096 4.68114347-1.5603808 0-3.1207616 3.1207616-3.1207616 4.6811424 4.6811424 23.40571413 14.04342827 42.13028587 34.3283808 57.734096 6.24152427 0 9.36228587 1.5603808 10.92266667 6.2415232 0-1.5603808 0-1.5603808 0 0-1.5603808 0 0-1.5603808 0 0zM416.8167616 184.32c3.1207616 1.5603808 7.80190507 3.1207616 10.92266667 4.6811424 1.5603808 0 1.5603808 1.5603808 3.12076266 3.12076267 3.1207616 9.36228587 6.24152427 18.72457173 10.92266667 28.08685653 1.5603808 4.6811424 4.6811424 9.36228587 6.2415232 12.48304747 1.5603808 3.1207616 3.1207616 4.6811424 6.24152427 1.56038186l1.5603808-1.56038186c9.36228587-6.24152427 9.36228587-7.80190507 6.2415232-17.16418987 0-4.6811424-3.1207616-9.36228587 3.12076266-10.92266667 6.24152427-1.5603808 14.04342827 3.1207616 14.04342827 9.36228587 6.24152427 15.60380907 4.6811424 24.96609493 1.5603808 40.569904-3.1207616 6.24152427-10.92266667-7.80190507-10.92266667-10.92266667-4.6811424-7.80190507-14.04342827 3.1207616-15.60380906 9.36228587 0 1.5603808-3.1207616 3.1207616-4.68114347 3.12076267-9.36228587 4.6811424-17.16419093 9.36228587-21.84533333 18.72457066-1.5603808 6.24152427-7.80190507 7.80190507-12.48304747 4.68114347-1.5603808-1.5603808-3.1207616-1.5603808-4.6811424-3.12076267-6.24152427-3.1207616-7.80190507-24.96609493-10.92266667-32.768-1.5603808-3.1207616-3.1207616-4.6811424 0-7.801904 10.92266667-4.6811424 15.60380907 7.80190507 18.72457067 14.04342827 4.6811424 6.24152427 15.60380907-1.5603808 14.04342933-7.80190507-3.1207616-14.04342827-12.48304747-24.96609493-17.16419093-39.0095232-1.5603808-3.1207616-3.1207616-6.24152427-6.2415232-9.36228586-3.1207616-3.1207616 0-9.36228587 7.801904-9.36228587 3.1207616 1.5603808-7.80190507 0 0 0zM243.61447573 555.69066667c0 6.24152427 1.5603808 12.48304747 1.56038187 18.72457173h-1.56038187l-1.5603808-1.5603808c-3.1207616-6.24152427-4.6811424-7.80190507-12.48304746-6.24152427-17.16419093 1.5603808-34.3283808 1.5603808-51.49257174 3.1207616h-3.1207616v-1.5603808c17.16419093-15.60380907 35.8887616-31.2076192 51.49257174-46.81142826v-1.5603808c-10.92266667 0-51.49257173-4.6811424-51.49257174 10.92266666v-21.84533333s0 1.5603808 1.5603808 1.5603808c4.6811424 15.60380907 43.69066667 6.24152427 56.17371414 4.6811424 3.1207616 0 4.6811424-3.1207616 6.24152426-4.6811424 0 0 0-3.1207616-1.5603808-3.1207616-1.5603808-1.5603808-3.1207616-1.5603808-6.24152426-3.12076267-10.92266667-1.5603808-18.72457173-3.1207616-29.64723734-4.6811424-3.1207616 0-7.80190507-1.5603808-10.92266666-1.5603808-15.60380907-4.6811424-17.16419093-20.28495253-12.48304854-35.88876266 6.24152427-20.28495253 32.768-12.48304747 48.37181014-10.92266667 7.80190507 0 15.60380907 4.6811424 20.28495253-3.1207616 0 0 0-1.5603808 1.5603808-1.5603808l-4.68114347 32.768h-1.5603808v1.5603808c0-7.80190507-1.5603808-9.36228587-7.801904-9.36228587l-37.44914346-4.6811424c-9.36228587-1.5603808-14.04342827 3.1207616-15.60380907 10.92266667-1.5603808 10.92266667 3.1207616 18.72457173 12.48304747 21.84533333l28.08685653 4.6811424c7.80190507 0 17.16419093 4.6811424 20.28495253-4.6811424 0 0 0-1.5603808 1.5603808-1.5603808 0 9.36228587 3.1207616 31.2076192-4.6811424 37.4491424-12.48304747 10.92266667-23.40571413 20.28495253-34.3283808 32.768 9.36228587 0 37.4491424 3.1207616 39.0095232-12.48304746zM842.8007616 660.23619093c-4.6811424 10.92266667-9.36228587 20.28495253-12.48304747 31.20761814-1.5603808 0-1.5603808-1.5603808-1.5603808-1.5603808 3.1207616-17.16419093-35.8887616-23.40571413-48.37180906-28.08685654-6.24152427-3.1207616-6.24152427-3.1207616-10.92266667 3.1207616h-1.56038187c1.5603808-3.1207616 3.1207616-7.80190507 4.68114347-10.92266666 4.6811424-10.92266667 7.80190507-20.28495253 12.48304747-29.6472384 3.1207616-7.80190507 10.92266667-12.48304747 20.28495253-10.92266667 4.6811424 1.5603808 7.80190507 3.1207616 10.92266667 7.80190507 1.5603808 3.1207616 1.5603808 14.04342827 6.2415232 10.92266666 9.36228587-3.1207616 17.16419093-4.6811424 26.5264768-6.24152426 3.1207616 0 4.6811424-3.1207616 7.80190506-4.6811424-1.5603808 4.6811424-1.5603808 6.24152427-1.56038186 7.80190506-1.5603808 3.1207616-3.1207616 4.6811424-3.1207616 7.801904-1.5603808 4.6811424-4.6811424 6.24152427-7.80190507 7.80190507-9.36228587 1.5603808-17.16419093 4.6811424-28.08685653 6.24152427-1.5603808 0-3.1207616 3.1207616-4.68114347 3.1207616 1.5603808 1.5603808 3.1207616 3.1207616 4.68114347 3.1207616 4.6811424 1.5603808 10.92266667 4.6811424 14.04342826 6.24152426 7.80190507 1.5603808 9.36228587 0 12.48304747-3.1207616-1.5603808 0-1.5603808 0 0 0 0-1.5603808 0 0 0 0z m-31.2076192-18.72457173v-3.1207616c-1.5603808-6.24152427-10.92266667-12.48304747-17.16418987-12.48304853-10.92266667 0-12.48304747 9.36228587-12.48304746 15.60381013 7.80190507 3.1207616 14.04342827 6.24152427 21.84533333 9.36228587 1.5603808 0 3.1207616 0 3.1207616-1.5603808 3.1207616 0 4.6811424-4.6811424 4.6811424-7.80190507zM797.54971413 565.05295253c7.80190507 1.5603808 12.48304747 1.5603808 20.28495254 3.1207616v1.5603808c-1.5603808 0-3.1207616 0-4.6811424 1.5603808-10.92266667 0-20.28495253 10.92266667-14.04342934 21.84533334 9.36228587 15.60380907 26.52647573-14.04342827 32.768-20.28495147 12.48304747-12.48304747 31.2076192-3.1207616 34.3283808 10.92266667 1.5603808 6.24152427 0 12.48304747-3.1207616 18.72457066-3.1207616 4.6811424-6.24152427 9.36228587 0 12.48304747h-1.5603808l-23.40571413-4.6811424v-1.5603808c3.1207616 0 6.24152427-1.5603808 9.36228587-1.5603808 9.36228587-3.1207616 18.72457173-12.48304747 15.60380906-23.40571413-4.6811424-18.72457173-23.40571413 4.6811424-26.52647573 9.3622848-12.48304747 17.16419093-45.25104747 14.04342827-39.00952427-12.48304747-1.5603808-1.5603808 6.24152427-10.92266667 0-15.60380907zM198.36342827 387.16952427c7.80190507 3.1207616 15.60380907 4.6811424 23.40571413 6.2415232v1.5603808c-10.92266667 0-31.2076192 6.24152427-28.08685653 21.84533333 4.6811424 23.40571413 29.6472384-6.24152427 34.3283808-12.48304747 10.92266667-7.80190507 23.40571413-4.6811424 28.0868576 6.24152427 4.6811424 9.36228587 3.1207616 15.60380907-3.12076267 23.40571413 0 1.5603808-1.5603808 1.5603808-1.5603808 3.1207616-3.1207616 3.1207616-4.6811424 6.24152427 0 9.36228587l-18.72457173-4.6811424v-1.56038187c9.36228587 0 21.84533333-3.1207616 23.4057152-14.04342826 1.5603808-4.6811424 0-9.36228587-4.68114347-10.92266667-14.04342827-7.80190507-24.96609493 24.96609493-39.0095232 24.96609493-14.04342827 1.5603808-24.96609493-10.92266667-21.84533333-24.96609493 1.5603808-4.6811424 3.1207616-7.80190507 4.6811424-12.48304747 4.6811424-6.24152427 4.6811424-6.24152427 3.1207616-15.60380906 7.80190507 3.1207616 1.5603808 9.36228587 0 0zM206.16533333 664.91733333c-4.6811424-12.48304747-9.36228587-21.84533333-12.48304746-34.3283808h1.5603808c0 1.5603808 1.5603808 1.5603808 1.5603808 3.1207616 3.1207616 9.36228587 17.16419093 1.5603808 21.84533333-1.5603808 1.5603808 0 3.1207616-1.5603808 3.1207616-3.1207616 7.80190507-10.92266667 15.60380907-18.72457173 23.4057152-29.6472384 1.5603808-3.1207616 3.1207616-6.24152427 4.6811424-10.92266666 4.6811424 9.36228587 7.80190507 18.72457173 12.48304747 28.0868576-7.80190507-4.6811424-9.36228587-1.5603808-15.60380907 4.6811424-3.1207616 3.1207616-17.16419093 17.16419093-10.92266667 20.28495253 10.92266667 1.5603808 32.768 9.36228587 32.768-6.24152427h1.5603808c3.1207616 6.24152427 4.6811424 10.92266667 7.80190507 17.16419094-12.48304747-9.36228587-29.6472384-7.80190507-42.13028587-10.92266667-3.1207616 0-6.24152427 0-7.80190506 1.5603808-4.6811424 1.5603808-9.36228587 3.1207616-12.48304747 4.6811424-6.24152427 3.1207616-7.80190507 4.6811424-4.68114347 10.92266667-4.6811424 6.24152427-3.1207616 6.24152427-4.6811424 6.24152426zM799.11009493 457.38666667c-3.1207616-9.36228587-6.24152427-18.72457173-9.36228586-29.6472384h1.56038186c4.6811424 6.24152427 6.24152427 3.1207616 12.48304747-1.5603808 3.1207616-3.1207616 17.16419093-14.04342827 17.16418987-17.16418987-1.5603808 0-1.5603808 0-3.1207616-1.56038187-7.80190507-1.5603808-14.04342827-4.6811424-21.84533334-6.2415232-9.36228587-1.5603808-9.36228587-1.5603808-10.92266666 7.80190507-1.5603808-6.24152427-3.1207616-12.48304747-6.24152427-17.16419093 3.1207616 1.5603808 6.24152427 4.6811424 9.36228587 6.24152426 12.48304747 3.1207616 21.84533333 6.24152427 34.3283808 9.3622848h6.24152426c4.6811424-1.5603808 9.36228587-3.1207616 12.48304747-4.6811424 6.24152427-1.5603808 7.80190507-3.1207616 6.24152427-10.92266666v-1.5603808h1.5603808c3.1207616 12.48304747 7.80190507 21.84533333 10.92266666 34.3283808h-1.5603808c0-1.5603808-1.5603808-1.5603808-1.5603808-3.1207616-1.5603808-4.6811424-4.6811424-6.24152427-9.36228586-4.68114347-10.92266667 4.6811424-17.16419093 6.24152427-24.966096 15.60381013-10.92266667 7.80190507-18.72457173 15.60380907-23.40571414 24.96609494-3.1207616-7.80190507 1.5603808-3.1207616 0 0zM276.38247573 764.78171413c-7.80190507-9.36228587-14.04342827-15.60380907-23.40571413-24.96609493l1.5603808-1.5603808c1.5603808 0 1.5603808 1.5603808 3.12076267 1.5603808 3.1207616 3.1207616 6.24152427 3.1207616 9.36228586 0 12.48304747-12.48304747 24.96609493-24.96609493 37.4491424-35.8887616V699.24571413c-6.24152427-7.80190507-12.48304747-9.36228587-18.72457173-4.6811424-1.5603808 0-1.5603808 1.5603808-3.1207616 1.5603808 1.5603808-1.5603808 1.5603808-3.1207616 1.5603808-3.1207616 10.92266667-10.92266667 10.92266667-10.92266667 21.84533333 0 9.36228587 10.92266667 18.72457173 20.28495253 29.6472384 31.20761814 0 0 1.5603808 3.1207616 0 3.12076266-3.1207616 4.6811424-7.80190507 7.80190507-12.48304746 10.92266667h-1.5603808c0-1.5603808 1.5603808-3.1207616 1.5603808-3.12076267 4.6811424-7.80190507 3.1207616-12.48304747-4.68114347-18.72457066-1.5603808-1.5603808-3.1207616-1.5603808-4.6811424 0-6.24152427 6.24152427-46.81142827 37.4491424-37.44914347 45.25104746v3.1207616c1.5603808-1.5603808 0-1.5603808 0 0-7.80190507-7.80190507 0-1.5603808 0 0zM824.07619093 519.80190507c-4.6811424 0-10.92266667 1.5603808-14.04342933 1.5603808 0 0-1.5603808-1.5603808-1.5603808-3.1207616-3.1207616-17.16419093-4.6811424-35.8887616-7.80190507-54.61333334 0-1.5603808 1.5603808-3.1207616 1.56038187-3.12076266 4.6811424-1.5603808 10.92266667-1.5603808 14.04342827-1.5603808v1.5603808c-1.5603808 0-1.5603808 1.5603808-3.1207616 1.5603808-7.80190507 4.6811424-10.92266667 9.36228587-9.36228587 17.16419093 0 3.1207616 1.5603808 3.1207616 4.6811424 3.1207616 15.60380907-3.1207616 34.3283808-4.6811424 49.93219093-7.801904 6.24152427-1.5603808 7.80190507-1.5603808 7.801904-9.36228587l1.56038187-1.5603808 4.6811424 32.768H870.8876192c-3.1207616-6.24152427-1.5603808-7.80190507-12.48304747-7.80190506-15.60380907 1.5603808-32.768 4.6811424-48.37181013 6.2415232-4.6811424 0-3.1207616 9.36228587-1.5603808 12.48304853 1.5603808 4.6811424 6.24152427 6.24152427 12.48304747 7.801904 1.5603808 3.1207616 1.5603808 3.1207616 3.12076266 4.68114347 0-1.5603808 0 0 0 0zM218.6483808 693.00419093c-4.6811424-6.24152427-7.80190507-10.92266667-12.48304747-17.16419093h1.5603808c12.48304747 6.24152427 21.84533333 0 32.768 0 12.48304747-1.5603808 26.52647573-4.6811424 39.00952427-6.24152427h3.1207616c-1.5603808 1.5603808-1.5603808 3.1207616-1.5603808 4.68114347-10.92266667 15.60380907-20.28495253 31.2076192-31.2076192 46.81142827-3.1207616 4.6811424-6.24152427 9.36228587-4.6811424 14.04342826h-1.56038187c-6.24152427-9.36228587-12.48304747-17.16419093-17.16418986-26.52647573h1.5603808c6.24152427 6.24152427 6.24152427 6.24152427 10.92266666-1.5603808 6.24152427-9.36228587 6.24152427-6.24152427 0-14.04342827-3.1207616-6.24152427-7.80190507-9.36228587-12.48304746-12.48304853h-4.68114347c-7.80190507 1.5603808-9.36228587 3.1207616-6.2415232 10.92266667 4.6811424 0 6.24152427 0 3.1207616 1.56038186 1.5603808-1.5603808 1.5603808-1.5603808 0 0-3.1207616-6.24152427 1.5603808-1.5603808 0 0z m43.69066667-17.16419093c-7.80190507 0-14.04342827 1.5603808-21.84533334 1.5603808 0 0-1.5603808 1.5603808-1.5603808 3.1207616 3.1207616 4.6811424 6.24152427 9.36228587 9.36228587 12.48304853h3.1207616c3.1207616-6.24152427 6.24152427-10.92266667 10.92266667-17.16419093zM869.3272384 524.48304747V558.81142827c-6.24152427-14.04342827-21.84533333-9.36228587-34.3283808-9.36228587-12.48304747 0-26.52647573-4.6811424-31.2076192 7.80190507v-32.768h1.5603808s0 1.5603808 1.5603808 1.5603808c3.1207616 12.48304747 21.84533333 7.80190507 32.768 7.80190506 10.92266667 0 24.96609493 4.6811424 29.6472384-9.36228586 0 12.48304747-3.1207616 9.36228587 0 0z" fill="#085521" p-id="579"></path><path d="M329.43542827 774.144c-1.5603808-1.5603808-1.5603808-1.5603808-3.1207616-1.5603808-4.6811424-3.1207616-9.36228587-7.80190507-12.48304747-10.92266667-3.1207616-1.5603808-1.5603808-3.1207616 0-6.24152426 6.24152427-6.24152427 14.04342827 4.6811424 18.72457173 9.36228586 1.5603808 0 1.5603808 3.1207616 1.5603808 3.1207616-1.5603808 3.1207616-3.1207616 4.6811424-4.68114346 6.24152427-1.5603808-1.5603808 1.5603808-1.5603808 0 0z" fill="#085521" p-id="580"></path><path d="M760.10057173 296.66742827c-1.5603808 1.5603808-3.1207616 3.1207616-3.12076266 1.5603808l-4.6811424-4.6811424s1.5603808-3.1207616 1.5603808-1.5603808c3.1207616 1.5603808 4.6811424 3.1207616 6.24152426 4.6811424-1.5603808 1.5603808-1.5603808-1.5603808 0 0zM811.5931424 641.5116192c-1.5603808 3.1207616-1.5603808 6.24152427-3.1207616 10.92266667 0 1.5603808-3.1207616 1.5603808-3.1207616 1.5603808-7.80190507-3.1207616-14.04342827-6.24152427-21.84533333-9.36228587-6.24152427 0 6.24152427-14.04342827 7.80190506-15.60380907 7.80190507-1.5603808 20.28495253 4.6811424 20.28495147 12.48304747 0-1.5603808 0-1.5603808 0 0-1.5603808 3.1207616 0-1.5603808 0 0zM262.33904747 675.84c-4.6811424 6.24152427-7.80190507 12.48304747-12.48304747 17.16419093H246.7352384c-3.1207616-4.6811424-6.24152427-9.36228587-9.36228587-12.48304853 0 0 0-1.5603808 1.5603808-3.1207616 7.80190507 0 15.60380907-1.5603808 23.40571414-1.5603808z" fill="#FFFFFF" p-id="581"></path><path d="M429.29980907 424.61866667c6.24152427 0 12.48304747 1.5603808 15.60381013-4.6811424 3.1207616-26.52647573 15.60380907-46.81142827 39.0095232-59.2944768 37.4491424-20.28495253 88.94171413-3.1207616 104.54552427 37.44914346 3.1207616 7.80190507 3.1207616 14.04342827 4.6811424 21.84533334 0 7.80190507 26.52647573 4.6811424 32.768 6.2415232 34.3283808 6.24152427 59.29447573 24.96609493 74.89828586 56.17371413 28.0868576 54.61333333 3.1207616 117.02857173-53.05295253 141.99466667-10.92266667 4.6811424-23.40571413 7.80190507-35.8887616 7.80190506-10.92266667 1.5603808-18.72457173-3.1207616-18.72457173 9.36228587-9.36228587 74.89828587-109.22666667 84.26057173-141.99466667 21.84533333-4.6811424-9.36228587-6.24152427-17.16419093-7.801904-26.5264768 0-6.24152427-29.6472384-6.24152427-35.88876267-7.801904-45.25104747-10.92266667-79.57942827-51.49257173-81.13980906-98.304-1.5603808-45.25104747 28.0868576-85.82095253 70.2171424-99.8643808 10.92266667-4.6811424 21.84533333-6.24152427 32.768-6.24152426z m266.82514346 68.6567616c0-1.5603808 0-1.5603808 0 0v-3.1207616c-15.60380907-34.3283808-43.69066667-54.61333333-81.13981013-57.73409494-4.6811424 0-23.40571413 3.1207616-26.52647573-1.5603808-4.6811424-4.6811424-3.1207616-23.40571413-6.24152427-29.6472384-15.60380907-40.56990507-67.0963808-57.73409493-102.9851424-31.2076192-12.48304747 7.80190507-21.84533333 20.28495253-26.52647573 34.3283808-1.5603808 7.80190507-3.1207616 14.04342827-3.12076267 21.84533334 0 7.80190507-20.28495253 4.6811424-24.96609493 4.68114346-39.00952427 3.1207616-67.0963808 21.84533333-82.70019094 57.73409494v3.1207616h3.12076267c23.40571413-3.1207616 45.25104747 10.92266667 54.61333333 32.768 4.6811424 15.60380907 90.50209493-1.5603808 90.50209494 9.36228586 0 7.80190507-40.56990507 4.6811424-46.81142827 4.6811424-4.6811424 0-45.25104747-3.1207616-40.56990507 6.24152427 4.6811424 4.6811424 21.84533333 1.5603808 28.0868576 1.5603808h53.05295147c1.5603808 0 7.80190507 3.1207616 3.12076267 6.24152427-7.80190507 3.1207616-23.40571413 0-31.2076192 0v1.5603808h1.5603808c14.04342827 6.24152427 15.60380907 18.72457173 15.60380906 32.768v31.2076192c0 6.24152427-3.1207616 23.40571413 1.56038187 28.08685653 10.92266667 10.92266667 9.36228587-20.28495253 9.3622848-23.40571413v-26.52647574c0-7.80190507-1.5603808-6.24152427-6.2415232-10.92266666 4.6811424 0 12.48304747-1.5603808 17.16418987-1.5603808 4.6811424 0 3.1207616 10.92266667 3.12076266 14.04342826 3.1207616-1.5603808 14.04342827-6.24152427 9.36228587-12.48304746 0-1.5603808-1.5603808-1.5603808-1.56038187-3.12076267 4.6811424 0 12.48304747-4.6811424 17.16419094 0 0 0 0 1.5603808-1.5603808 3.12076267 0 7.80190507 3.1207616 9.36228587 10.92266666 12.48304746 0-3.1207616-1.5603808-14.04342827 3.1207616-14.04342826 4.6811424 0 17.16419093-1.5603808 18.72457174 1.5603808l-1.5603808 1.5603808c-9.36228587 0-3.1207616 59.29447573-3.12076267 59.29447573 12.48304747 6.24152427 9.36228587-40.56990507 9.36228587-46.81142827 0-15.60380907-3.1207616-39.00952427 14.04342933-46.81142826 1.5603808 0 1.5603808-1.5603808 3.1207616-1.5603808-3.1207616-3.1207616-34.3283808 1.5603808-31.2076192-6.24152427 0-3.1207616 63.9756192-1.5603808 70.2171424-1.5603808h14.04342933c3.1207616 0 3.1207616-6.24152427 1.5603808-7.80190507-9.36228587-4.6811424-29.6472384 0-39.00952426 0h-42.13028587c-3.1207616 0-4.6811424-1.5603808-4.6811424-4.6811424 0-4.6811424 12.48304747-3.1207616 15.60380907-3.12076266h40.56990506c7.80190507 0 29.6472384 4.6811424 34.3283808-4.6811424 7.80190507-18.72457173 20.28495253-31.2076192 40.56990507-34.3283808 9.36228587 3.1207616 14.04342827 4.6811424 20.28495253 4.6811424 0-1.5603808-6.24152427 0 0 0zM455.82628587 652.43428587c7.80190507 23.40571413 34.3283808 46.81142827 68.6567616 45.25104746 32.768-3.1207616 54.61333333-28.0868576 57.73409493-45.25104746h-126.39085653c7.80190507 23.40571413 43.69066667 0 0 0z m81.13980906-26.5264768v-18.72457067c-3.1207616-7.80190507-12.48304747-12.48304747-20.28495253-12.48304747-12.48304747 1.5603808-14.04342827 12.48304747-14.04342827 23.40571414 0 6.24152427-3.1207616 28.0868576 4.68114347 28.08685653 4.6811424 0 32.768 3.1207616 32.768-3.1207616-3.1207616-6.24152427-3.1207616-12.48304747-3.12076267-17.16419093z m-68.6567616-42.1302848s1.5603808 0 0 0c0-4.6811424 0-9.36228587-1.5603808-12.48304854-3.1207616-12.48304747-23.40571413-17.16419093-31.2076192-6.2415232-1.5603808 1.5603808-1.5603808 3.1207616 0 4.6811424 6.24152427 7.80190507 9.36228587 15.60380907 9.36228587 24.966096 0 4.6811424 23.40571413 4.6811424 23.40571413 0 1.5603808-4.6811424 0-7.80190507 0-10.92266666z m101.4247616 0c0 1.5603808-1.5603808 9.36228587 1.5603808 10.92266666 4.6811424 1.5603808 14.04342827 0 18.72457174 0 4.6811424 0 9.36228587-23.40571413 12.48304746-28.0868576 1.5603808-1.5603808 1.5603808-3.1207616 0-6.24152426-6.24152427-6.24152427-12.48304747-7.80190507-18.72457066-4.6811424-6.24152427 1.5603808-10.92266667 6.24152427-10.92266667 12.48304746-3.1207616 6.24152427-3.1207616 10.92266667-3.12076267 15.60381014z m-115.46818986 18.72457066s-1.5603808 0 0 0c3.1207616 4.6811424 4.6811424 42.13028587 6.2415232 42.13028587 9.36228587-1.5603808 6.24152427-10.92266667 6.24152426-18.72457173 0-6.24152427 3.1207616-18.72457173-1.5603808-23.40571414-3.1207616-1.5603808-7.80190507 0-10.92266666 0z m131.072-1.5603808c-3.1207616 0-10.92266667-1.5603808-14.04342934 1.5603808-4.6811424 4.6811424-1.5603808 20.28495253-1.5603808 24.966096 0 1.5603808-1.5603808 14.04342827 1.5603808 15.60380907 6.24152427 1.5603808 9.36228587 0 9.36228587-6.24152427 0-10.92266667-3.1207616-21.84533333 4.68114347-35.8887616-4.6811424 0-7.80190507 14.04342827 0 0z m39.0095232-51.49257173h-28.08685654c4.6811424 3.1207616 7.80190507 6.24152427 10.92266667 9.36228587 0 0 1.5603808 1.5603808 3.1207616 0 4.6811424-1.5603808 7.80190507-4.6811424 14.04342827-9.36228587-9.36228587 0-6.24152427 4.6811424 0 0z m-210.65142827 0c6.24152427 3.1207616 10.92266667 6.24152427 14.04342827 9.36228587h3.12076266c4.6811424-3.1207616 7.80190507-6.24152427 12.48304747-9.36228587h-29.6472384c6.24152427 3.1207616 10.92266667 0 0 0z" fill="#085521" p-id="582"></path><path d="M624.34742827 549.4491424c-6.24152427 3.1207616-10.92266667 6.24152427-14.04342827 9.36228587h-3.1207616c-3.1207616-3.1207616-7.80190507-6.24152427-10.92266667-9.36228587h28.08685654c-6.24152427 3.1207616-9.36228587 0 0 0zM413.696 549.4491424h29.6472384c-4.6811424 3.1207616-7.80190507 6.24152427-12.48304747 9.36228587h-3.12076266c-3.1207616-3.1207616-7.80190507-6.24152427-14.04342827-9.36228587 10.92266667 0 6.24152427 3.1207616 0 0z" fill="#FFFFFF" p-id="583"></path><path d="M546.3283808 504.19809493c0 7.80190507-4.6811424 57.73409493 4.68114347 57.734096 3.1207616 4.6811424 1.5603808 9.36228587 1.5603808 14.04342827 0 4.6811424-10.92266667 3.1207616-14.04342934 3.1207616-6.24152427 0-54.61333333 1.5603808-51.49257066-4.6811424 0-4.6811424-1.5603808-12.48304747 4.6811424-12.48304747 4.6811424-9.36228587 1.5603808-24.96609493 1.5603808-34.32838186v-48.37180907c0-9.36228587-4.6811424-28.0868576 7.80190506-28.0868576 9.36228587 0 6.24152427 9.36228587 6.24152427 17.16419093 0 6.24152427-1.5603808 14.04342827 0 20.28495254 1.5603808 3.1207616 9.36228587 0 12.48304747 0 4.6811424 0 9.36228587 3.1207616 9.36228586-3.1207616v-21.84533334c0-7.80190507 0-9.36228587 7.801904-9.36228586 6.24152427 0 7.80190507 1.5603808 7.80190507 7.801904 1.5603808 15.60380907 1.5603808 29.6472384 1.5603808 42.13028586z m-39.0095232 14.04342934c0 4.6811424-3.1207616 26.52647573 4.6811424 26.52647573 10.92266667 0 17.16419093 3.1207616 17.16419093-9.36228587v-31.2076192c0-7.80190507 0-9.36228587-7.80190506-10.92266666-1.5603808-1.5603808-12.48304747 0-14.04342827 3.12076266-1.5603808 3.1207616 0 15.60380907 0 21.84533334z m12.48304747 31.20761813c-7.80190507 0-12.48304747-1.5603808-12.48304747 7.80190507 0 6.24152427 14.04342827 3.1207616 17.16418987 3.1207616 4.6811424 0 4.6811424-10.92266667-1.5603808-10.92266667h-3.1207616zM521.36228587 376.2468576c0 6.24152427 0 28.0868576 10.92266666 28.08685653 1.5603808 1.5603808-1.5603808 12.48304747-1.5603808 12.48304747 4.6811424 1.5603808 1.5603808 12.48304747 7.801904 10.92266667h1.56038187c9.36228587 0 4.6811424 10.92266667 10.92266667 10.92266666 4.6811424 0 3.1207616 6.24152427 0 6.24152427H527.60380907c-4.6811424 0-37.4491424 3.1207616-37.4491424-3.1207616 0-4.6811424 6.24152427-1.5603808 6.24152426-7.80190507 0-4.6811424 0-6.24152427 6.2415232-6.24152426h1.5603808c4.6811424 0 6.24152427 0 6.24152427-6.2415232 0-4.6811424 7.80190507-7.80190507 3.1207616-10.92266667-3.1207616-1.5603808-3.1207616-4.6811424 0-6.24152427l1.5603808-1.5603808c0-4.6811424 3.1207616-6.24152427 6.24152427-9.36228586-1.5603808-1.5603808-4.6811424-17.16419093 0-17.16418987-1.5603808 0-1.5603808 0 0 0 0 4.6811424-1.5603808 0 0 0z m4.6811424 45.25104747c0-1.5603808-1.5603808-4.6811424-1.5603808-6.24152427v12.48304747c0-3.1207616 1.5603808-4.6811424 1.5603808-6.2415232z m-7.801904 0c-1.5603808-1.5603808-1.5603808-4.6811424-3.12076267-6.24152427 0 3.1207616-4.6811424 7.80190507 0 10.92266667 0 0 1.5603808-3.1207616 3.12076267-4.6811424-1.5603808-1.5603808-1.5603808 1.5603808 0 0z" fill="#085521" p-id="584"></path><path d="M519.80190507 472.99047573c-9.36228587 0-4.6811424-10.92266667 0-12.48304746 6.24152427-1.5603808 7.80190507 12.48304747 0 12.48304746zM499.51695253 669.59847573c0-7.80190507 7.80190507-12.48304747 12.48304747-9.3622848l1.5603808 1.5603808c0 4.6811424 0 7.80190507-1.5603808 10.92266667 0 6.24152427-14.04342827 1.5603808-15.60380907 1.5603808 3.1207616 0 7.80190507-3.1207616 12.48304747-3.1207616-3.1207616 0-6.24152427-1.5603808-9.36228587-1.56038187 0-6.24152427 0 0 0 0z m6.2415232-6.2415232l-3.1207616 3.1207616 1.5603808 1.5603808c1.5603808 0 1.5603808-1.5603808 3.12076267-1.5603808 0-1.5603808 0-1.5603808-1.56038187-3.1207616-1.5603808 0 1.5603808 1.5603808 0 0zM529.16419093 672.7192384c1.5603808 1.5603808 4.6811424 3.1207616 4.6811424 3.1207616 0 3.1207616-12.48304747 1.5603808-14.04342826 0 0-1.5603808 1.5603808-3.1207616 1.5603808-4.6811424 1.5603808-1.5603808 3.1207616-1.5603808 4.6811424-3.12076267 1.5603808 0 1.5603808-1.5603808 1.5603808-3.1207616h-3.1207616c-1.5603808 0-3.1207616 0-4.6811424 1.5603808 0-1.5603808-1.5603808-3.1207616 0-4.6811424 0-1.5603808 21.84533333-1.5603808 9.36228586 10.92266667 0-1.5603808 0 0 0 0zM555.69066667 672.7192384c-1.5603808 1.5603808-1.5603808 4.6811424-3.1207616 4.6811424 0 0-15.60380907-6.24152427-12.48304747-10.92266667 0-1.5603808 1.5603808-3.1207616 1.5603808-3.1207616 3.1207616-6.24152427 7.80190507 7.80190507 14.04342827 9.36228587 0-3.1207616 0-1.5603808 0 0-1.5603808 1.5603808 0-1.5603808 0 0zM494.83580907 663.35695253c-1.5603808 4.6811424-3.1207616 9.36228587-4.6811424 12.48304747-1.5603808 3.1207616-3.1207616 1.5603808-6.24152427 1.5603808 3.1207616-4.6811424 4.6811424-10.92266667 6.24152427-14.04342827 0 0 1.5603808-1.5603808 4.6811424 0-1.5603808-1.5603808-1.5603808-1.5603808 0 0-1.5603808 3.1207616-1.5603808-1.5603808 0 0z" fill="#085521" p-id="585"></path><path d="M505.75847573 663.35695253c1.5603808 1.5603808 1.5603808 1.5603808 1.56038187 3.1207616-1.5603808 0-1.5603808 1.5603808-3.12076267 1.5603808l-1.5603808-1.5603808 3.1207616-3.1207616c1.5603808 0-1.5603808 1.5603808 0 0z" fill="#FFFFFF" p-id="586"></path><path d="M522.92266667 518.24152427c0 3.1207616 1.5603808 12.48304747-3.1207616 12.48304746-4.6811424-4.6811424-4.6811424-23.40571413 0-29.6472384 4.6811424 4.6811424 3.1207616 10.92266667 3.1207616 17.16419094z" fill="#085521" p-id="587"></path></svg>